<svg id="visual" viewBox="0 0 900 600" width="900" height="600" xmlns="http://www.w3.org/2000/svg" xmlns:xlink="http://www.w3.org/1999/xlink" version="1.1"><path d="M0 187L75 204C150 221 300 255 450 261C600 267 750 245 825 234L900 223L900 0L825 0C750 0 600 0 450 0C300 0 150 0 75 0L0 0Z" fill="#c2c2bb"></path><path d="M0 325L75 337C150 349 300 373 450 376C600 379 750 361 825 352L900 343L900 221L825 232C750 243 600 265 450 259C300 253 150 219 75 202L0 185Z" fill="#a8a89e"></path><path d="M0 601L75 601C150 601 300 601 450 601C600 601 750 601 825 601L900 601L900 341L825 350C750 359 600 377 450 374C300 371 150 347 75 335L0 323Z" fill="#7b7b73"></path></svg>